<svg xmlns="http://www.w3.org/2000/svg" width="20" height="20" viewBox="0 0 544 448">
  <g id="signin" transform="translate(0 -0.008)">
    <path id="Path_3" data-name="Path 3" d="M192,213.34A106.666,106.666,0,1,1,298.668,106.676,106.786,106.786,0,0,1,192,213.34Zm0-181.332a74.666,74.666,0,1,0,74.668,74.668A74.75,74.75,0,0,0,192,32.008Zm0,0" fill="#fff"/>
    <path id="Path_4" data-name="Path 4" d="M368,448.008H16a16.006,16.006,0,0,1-16-16V357.34A101.451,101.451,0,0,1,101.332,256.008H282.668A101.451,101.451,0,0,1,384,357.34v74.668A16.006,16.006,0,0,1,368,448.008Zm-336-32H352V357.34a69.415,69.415,0,0,0-69.332-69.332H101.332A69.415,69.415,0,0,0,32,357.34Zm0,0" fill="#fff"/>
    <path id="Path_5" data-name="Path 5" d="M496,218.676H314.668a16,16,0,0,1,0-32H496a16,16,0,0,1,0,32Zm0,0" transform="translate(640.01 -202.658) rotate(90)" fill="#fff"/>
    <path id="Path_6" data-name="Path 6" d="M496,218.676H314.668a16,16,0,0,1,0-32H496a16,16,0,0,1,0,32Zm0,0" transform="translate(842.668 405.352) rotate(-180)" fill="#fff"/>
  </g>
</svg>
